#!OML:ASF E:\VariousWalksJay\Project 1\Capture day 1\Session 1\Actor2.ASF
:FULLY-SPECIFIED
:DEGREES
639
root 6.88303 15.237 1.12706 14.9313 -36.4705 2.43818
lowerback 15.0131 -4.22412 3.18738
upperback 14.4032 -5.53295 -3.65476
thorax 6.45986 -2.46663 -5.17043
lowerneck 3.5722 1.31578 1.81168
upperneck -3.93681 1.94361 2.10391
head -1.83496 0.888703 0.300532
rclavicle -4.85035e-014 9.14409e-014
rhumerus -26.5398 23.3505 -85.5864
rradius 77.7157
rwrist -0.0358361
rhand -24.0939 -12.6269
rfingers 7.12502
rthumb 2.3867 -42.5933
lclavicle -4.85035e-014 9.14409e-014
lhumerus 31.9924 -16.7121 57.854
lradius 69.5502
lwrist 66.7138
lhand -35.6208 17.3542
lfingers 7.12502
lthumb -8.74387 47.1531
rfemur -65.8212 9.52275 20.5721
rtibia 69.8626
rfoot -20.6328 -16.5652
rtoes 8.57222
lfemur -19.1913 8.32689 -25.3302
ltibia 73.5463
lfoot -15.4106 -10.0864
ltoes -26.7029
640
root 6.83429 15.2483 1.15341 14.9069 -36.0439 2.28028
lowerback 15.2391 -4.2733 3.25259
upperback 14.3787 -5.58158 -3.58608
thorax 6.30825 -2.49286 -5.10763
lowerneck 3.11641 1.25114 1.91981
upperneck -3.26255 1.8363 2.23539
head -1.537 0.843574 0.330678
rclavicle -8.42847e-014 4.77083e-015
rhumerus -26.5932 23.3127 -85.6144
rradius 77.7319
rwrist -0.063749
rhand -24.1106 -12.6241
rfingers 7.12502
rthumb 2.37051 -42.5907
lclavicle -8.42847e-014 4.77083e-015
lhumerus 32.2995 -16.8553 57.6261
lradius 69.4205
lwrist 66.7105
lhand -35.5765 17.3508
lfingers 7.12502
lthumb -8.70116 47.1515
rfemur -65.412 9.53126 20.8035
rtibia 69.8522
rfoot -20.9005 -16.9197
rtoes 8.79724
lfemur -20.9504 8.47985 -24.6759
ltibia 76.7639
lfoot -15.442 -9.98496
ltoes -27.0792
641
root 6.78613 15.2582 1.17662 14.8535 -35.6049 2.10348
lowerback 15.4954 -4.3145 3.32514
upperback 14.3708 -5.61851 -3.51729
thorax 6.16086 -2.51257 -5.04898
lowerneck 2.66492 1.17884 2.02206
upperneck -2.55439 1.71476 2.38267
head -1.23333 0.79288 0.366017
rclavicle 3.18055e-014 4.45278e-014
rhumerus -26.6239 23.278 -85.6288
rradius 77.758
rwrist -0.0857823
rhand -24.1405 -12.6242
rfingers 7.12502
rthumb 2.34166 -42.591
lclavicle 3.18055e-014 4.45278e-014
lhumerus 32.6637 -17.0004 57.3821
lradius 69.2925
lwrist 66.6956
lhand -35.4953 17.403
lfingers 7.12502
lthumb -8.6228 47.2069
rfemur -64.9728 9.52863 21.0712
rtibia 69.8441
rfoot -21.1617 -17.2666
rtoes 9.02071
lfemur -22.8298 8.67343 -23.9847
ltibia 80.1534
lfoot -15.6416 -9.9561
ltoes -27.5448
642
root 6.73855 15.2668 1.19703 14.7651 -35.1585 1.90241
lowerback 15.7909 -4.34609 3.40938
upperback 14.3816 -5.64105 -3.44719
thorax 6.01587 -2.52425 -4.99556
lowerneck 2.24012 1.09849 2.11349
upperneck -1.83863 1.57947 2.54393
head -0.936245 0.73651 0.406401
rclavicle 9.62118e-014 -1.35174e-014
rhumerus -26.6332 23.2445 -85.6242
rradius 77.7946
rwrist -0.101137
rhand -24.1778 -12.6295
rfingers 7.12502
rthumb 2.30566 -42.5968
lclavicle 9.62118e-014 -1.35174e-014
lhumerus 33.084 -17.1441 57.1268
lradius 69.1656
lwrist 66.6749
lhand -35.4383 17.4178
lfingers 7.12502
lthumb -8.56777 47.224
rfemur -64.4932 9.51954 21.3802
rtibia 69.8388
rfoot -21.4179 -17.6073
rtoes 9.24082
lfemur -24.8095 8.90787 -23.2511
ltibia 83.6754
lfoot -15.9415 -10.0186
ltoes -28.0724
643
root 6.69167 15.2738 1.21513 14.6328 -34.7106 1.68005
lowerback 16.1296 -4.3685 3.50316
upperback 14.416 -5.64993 -3.37611
thorax 5.8769 -2.52834 -4.94664
lowerneck 1.86345 1.01165 2.18723
upperneck -1.15069 1.43413 2.71487
head -0.659978 0.675701 0.451345
rclavicle -3.02153e-014 6.36111e-014
rhumerus -26.6104 23.212 -85.5975
rradius 77.8365
rwrist -0.109176
rhand -24.2231 -12.6441
rfingers 7.12502
rthumb 2.26193 -42.6119
lclavicle -3.02153e-014 6.36111e-014
lhumerus 33.5528 -17.2791 56.8702
lradius 69.0431
lwrist 66.6449
lhand -35.4181 17.3825
lfingers 7.12502
lthumb -8.54831 47.1894
rfemur -63.9664 9.5036 21.729
rtibia 69.8393
rfoot -21.6698 -17.9407
rtoes 9.44378
lfemur -26.8674 9.19075 -22.477
ltibia 87.2873
lfoot -16.2868 -10.1717
ltoes -28.6025
644
root 6.64533 15.2794 1.23136 14.4497 -34.2648 1.44145
lowerback 16.5106 -4.38252 3.60452
upperback 14.4777 -5.64638 -3.30534
thorax 5.74883 -2.52541 -4.90287
lowerneck 1.565 0.918802 2.23521
upperneck -0.535486 1.28229 2.89556
head -0.422386 0.611059 0.502099
rclavicle -1.59028e-015 -2.38542e-014
rhumerus -26.5499 23.1784 -85.5472
rradius 77.8795
rwrist -0.108226
rhand -24.2798 -12.6722
rfingers 7.12502
rthumb 2.20716 -42.6406
lclavicle -1.59028e-015 -2.38542e-014
lhumerus 34.0699 -17.4016 56.605
lradius 68.9261
lwrist 66.6132
lhand -35.4092 17.3366
lfingers 7.12502
lthumb -8.53966 47.1439
rfemur -63.387 9.47911 22.1144
rtibia 69.8469
rfoot -21.9208 -18.2674
rtoes 9.63182
lfemur -28.9879 9.51044 -21.6701
ltibia 90.9473
lfoot -16.6657 -10.3249
ltoes -29.1465
645
root 6.59959 15.2833 1.24607 14.2097 -33.8228 1.19236
lowerback 16.9358 -4.38937 3.71088
upperback 14.5703 -5.63221 -3.23533
thorax 5.63516 -2.51645 -4.86336
lowerneck 1.36648 0.820558 2.25195
upperneck -0.0338379 1.12771 3.08433
head -0.237908 0.543236 0.559278
rclavicle 2.3059e-014 -5.96354e-014
rhumerus -26.4442 23.1407 -85.4672
rradius 77.923
rwrist -0.0923712
rhand -24.3268 -12.7115
rfingers 7.12502
rthumb 2.16175 -42.6803
lclavicle 2.3059e-014 -5.96354e-014
lhumerus 34.638 -17.5101 56.3229
lradius 68.8123
lwrist 66.5831
lhand -35.3934 17.3194
lfingers 7.12502
lthumb -8.52441 47.1274
rfemur -62.7525 9.44071 22.5324
rtibia 69.8647
rfoot -22.1735 -18.5859
rtoes 9.79571
lfemur -31.1566 9.87269 -20.8337
ltibia 94.6139
lfoot -17.0481 -10.5054
ltoes -29.6242
646
root 6.55448 15.2854 1.25953 13.9145 -33.3909 0.933833
lowerback 17.4028 -4.38709 3.822
upperback 14.6953 -5.60501 -3.16507
thorax 5.53962 -2.5002 -4.82771
lowerneck 1.28885 0.71611 2.23001
upperneck 0.315266 0.972486 3.28324
head -0.120168 0.471879 0.625061
rclavicle 2.38542e-014 2.70347e-014
rhumerus -26.292 23.0958 -85.3524
rradius 77.9684
rwrist -0.0674276
rhand -24.3611 -12.731
rfingers 7.12502
rthumb 2.12861 -42.7001
lclavicle 2.38542e-014 2.70347e-014
lhumerus 35.2572 -17.6068 56.0248
lradius 68.7028
lwrist 66.5571
lhand -35.3831 17.2864
lfingers 7.12502
lthumb -8.51449 47.0948
rfemur -62.0672 9.38729 22.9822
rtibia 69.8947
rfoot -22.4272 -18.8933
rtoes 9.92252
lfemur -33.3667 10.2902 -19.9696
ltibia 98.2488
lfoot -17.4289 -10.6807
ltoes -30.0125
647
root 6.51007 15.2858 1.27226 13.5596 -32.9705 0.678819
lowerback 17.9081 -4.37706 3.93148
upperback 14.8534 -5.56732 -3.09598
thorax 5.46546 -2.47824 -4.79407
lowerneck 1.3475 0.606368 2.16639
upperneck 0.484019 0.820428 3.49283
head -0.0791635 0.397676 0.700336
rclavicle -9.70069e-014 4.37326e-014
rhumerus -26.0911 23.042 -85.2015
rradius 78.0129
rwrist -0.031979
rhand -24.3826 -12.7268
rfingers 7.12502
rthumb 2.10782 -42.6962
lclavicle -9.70069e-014 4.37326e-014
lhumerus 35.9287 -17.692 55.7005
lradius 68.5989
lwrist 66.5417
lhand -35.3788 17.2365
lfingers 7.12502
lthumb -8.5103 47.045
rfemur -61.3326 9.30865 23.4511
rtibia 69.9397
rfoot -22.689 -19.1808
rtoes 10.0114
lfemur -35.6122 10.7499 -19.0985
ltibia 101.812
lfoot -17.792 -10.8381
ltoes -30.2518
648
root 6.46636 15.2844 1.28443 13.1498 -32.5632 0.431507
lowerback 18.447 -4.35901 4.03688
upperback 15.0427 -5.51923 -3.02673
thorax 5.41367 -2.45081 -4.76
lowerneck 1.55187 0.491896 2.06203
upperneck 0.455214 0.674135 3.71047
head -0.121638 0.320957 0.78458
rclavicle 3.18055e-015 3.65764e-014
rhumerus -25.8467 22.9781 -85.0114
rradius 78.0617
rwrist 0.0109807
rhand -24.3863 -12.7044
rfingers 7.12502
rthumb 2.10427 -42.6738
lclavicle 3.18055e-015 3.65764e-014
lhumerus 36.6506 -17.7661 55.3477
lradius 68.5025
lwrist 66.5395
lhand -35.3648 17.1969
lfingers 7.12502
lthumb -8.49687 47.0059
rfemur -60.5576 9.19828 23.9345
rtibia 70.0017
rfoot -22.9602 -19.4411
rtoes 10.0485
lfemur -37.8968 11.2541 -18.2291
ltibia 105.27
lfoot -18.1189 -10.984
ltoes -30.3287
649
root 6.42342 15.2812 1.29641 12.6886 -32.1705 0.19754
lowerback 19.0145 -4.33299 4.13527
upperback 15.262 -5.46135 -2.95777
thorax 5.38613 -2.41835 -4.72475
lowerneck 1.89843 0.374257 1.92467
upperneck 0.228065 0.536161 3.93174
head -0.247901 0.242566 0.876082
rclavicle -2.8625e-014 1.27222e-014
rhumerus -25.5611 22.9026 -84.7829
rradius 78.1146
rwrist 0.0569672
rhand -24.375 -12.6577
rfingers 7.12502
rthumb 2.1152 -42.6269
lclavicle -2.8625e-014 1.27222e-014
lhumerus 37.4216 -17.8298 54.9603
lradius 68.4183
lwrist 66.5596
lhand -35.3328 17.1973
lfingers 7.12502
lthumb -8.46596 47.0076
rfemur -59.7492 9.04872 24.4251
rtibia 70.0821
rfoot -23.2475 -19.6623
rtoes 10.0414
lfemur -40.2229 11.8031 -17.3777
ltibia 108.589
lfoot -18.4105 -11.1193
ltoes -30.272
